# xmcd CD database file
#
# Track frame offsets:
#	150
#	12937
#	25410
#	39635
#	56812
#	72152
#	86510
#	97540
#	111162
#	123545
#	141605
#	157427
#
# Disc length: 2325 seconds
#
# Revision: 6
# Processed by: cddbd v1.5.2PL0 Copyright (c) Steve Scherf et al.
# Submitted via: CDex 1.70beta2
#
DISCID=a909130c
DTITLE=Zillertaler Schürzenjäger - Zillertaler Schürzenjäger 92
DYEAR=1900
DGENRE=Volksmusik
TTITLE0=Ich Habe Mein Wort Einer Anderen Gegeben
TTITLE1=Jodelautomat
TTITLE2=Schürzenjägerzeit
TTITLE3=Zum Beten Geh I In Die Berge
TTITLE4=Was Dann?
TTITLE5=Dahoam Is Dahoam
TTITLE6=Zillertaler Hochzeitsmarsch
TTITLE7=Sierra Madre
TTITLE8=Sommer In Den Bergen
TTITLE9=Mein Tirol, Ich Vermisse Dich
TTITLE10=Rock 'n Roll Im Zillertal
TTITLE11=Alles Braucht Im Leben Seine Zeit
EXTD=
EXTT0=
EXTT1=
EXTT2=
EXTT3=
EXTT4=
EXTT5=
EXTT6=
EXTT7=
EXTT8=
EXTT9=
EXTT10=
EXTT11=
PLAYORDER=
